<svg width="43.2" height="42" viewBox="0 0 43.2 42" xmlns="http://www.w3.org/2000/svg"><g id="svgGroup" stroke-linecap="round" fill-rule="evenodd" font-size="9pt" stroke="#000" stroke-width="0.25mm" fill="black" style="stroke:#000;stroke-width:0.25mm;fill:black"><path d="M 1.5 42 L 0 42 L 20.64 0 L 22.5 0 L 43.2 42 L 41.64 42 L 25.08 8.16 Q 24.66 7.32 24.21 6.39 Q 23.76 5.46 23.28 4.53 Q 22.8 3.6 22.35 2.7 Q 21.9 1.8 21.42 0.96 L 21.6 0.96 Q 21.18 1.86 20.73 2.76 Q 20.28 3.66 19.83 4.59 Q 19.38 5.52 18.93 6.42 Q 18.48 7.32 18 8.22 L 1.5 42 Z M 35.94 28.74 L 7.38 28.74 L 8.04 27.42 L 35.34 27.42 L 35.94 28.74 Z" vector-effect="non-scaling-stroke"/></g></svg>