<svg width="38.58" height="42.6" viewBox="0 0 38.58 42.6" xmlns="http://www.w3.org/2000/svg"><g id="svgGroup" stroke-linecap="round" fill-rule="evenodd" font-size="9pt" stroke="#000" stroke-width="0.25mm" fill="black" style="stroke:#000;stroke-width:0.25mm;fill:black"><path d="M 0 33 L 1.14 31.98 Q 1.98 33.96 3.36 35.64 Q 4.74 37.32 6.57 38.58 Q 8.4 39.84 10.56 40.53 Q 12.72 41.22 15.06 41.22 Q 19.38 41.22 22.62 39.42 A 12.336 12.336 0 0 0 27.575 34.302 A 14.858 14.858 0 0 0 27.66 34.14 Q 29.291 30.986 29.444 26.551 A 27.025 27.025 0 0 0 29.46 25.62 L 29.46 1.32 L 18.96 1.32 L 18.96 0 L 38.58 0 L 38.58 1.32 L 30.78 1.32 L 30.78 25.62 A 26.318 26.318 0 0 1 30.526 29.366 A 19.669 19.669 0 0 1 29.73 32.79 A 15.362 15.362 0 0 1 28.083 36.273 A 13.249 13.249 0 0 1 26.64 38.13 Q 24.6 40.32 21.66 41.46 A 16.489 16.489 0 0 1 17.98 42.397 A 21.866 21.866 0 0 1 14.94 42.6 A 16.005 16.005 0 0 1 10.246 41.92 A 15.097 15.097 0 0 1 9.93 41.82 Q 7.56 41.04 5.61 39.69 Q 3.66 38.34 2.22 36.6 A 15.358 15.358 0 0 1 0.678 34.378 A 13.008 13.008 0 0 1 0 33 Z" vector-effect="non-scaling-stroke"/></g></svg>