<svg width="40.2" height="42" viewBox="0 0 40.2 42" xmlns="http://www.w3.org/2000/svg"><g id="svgGroup" stroke-linecap="round" fill-rule="evenodd" font-size="9pt" stroke="#000" stroke-width="0.25mm" fill="black" style="stroke:#000;stroke-width:0.25mm;fill:black"><path d="M 1.32 42 L 0 42 L 0 0 L 1.8 0 L 39.3 40.92 L 39 40.98 Q 38.942 39.934 38.94 38.635 A 60.211 60.211 0 0 1 38.94 38.55 L 38.94 35.73 L 38.94 32.79 L 38.94 29.97 A 52.321 52.321 0 0 0 38.926 28.726 Q 38.912 28.136 38.884 27.61 A 31.586 31.586 0 0 0 38.88 27.54 L 38.88 0 L 40.2 0 L 40.2 42 L 38.4 42 L 0.9 0.9 L 1.2 0.9 Q 1.2 1.62 1.23 2.55 A 266.662 266.662 0 0 1 1.258 3.475 Q 1.274 4.028 1.29 4.65 Q 1.32 5.82 1.32 7.23 L 1.32 10.26 L 1.32 13.8 L 1.32 42 Z" vector-effect="non-scaling-stroke"/></g></svg>