<svg width="43.2" height="42.06" viewBox="0 0 43.2 42.06" xmlns="http://www.w3.org/2000/svg"><g id="svgGroup" stroke-linecap="round" fill-rule="evenodd" font-size="9pt" stroke="#000" stroke-width="0.25mm" fill="black" style="stroke:#000;stroke-width:0.25mm;fill:black"><path d="M 22.5 42.06 L 20.64 42.06 L 0 0.06 L 1.44 0 L 18 33.78 Q 19.02 35.88 19.71 37.23 A 737.594 737.594 0 0 0 20.038 37.871 Q 20.505 38.783 20.82 39.39 A 179.891 179.891 0 0 1 21.019 39.774 Q 21.212 40.149 21.358 40.437 A 54.324 54.324 0 0 1 21.48 40.68 L 21.9 41.52 L 21.3 41.52 Q 22.022 40.128 22.589 39.001 A 157.322 157.322 0 0 0 22.77 38.64 A 271.137 271.137 0 0 0 23.681 36.801 A 240.568 240.568 0 0 0 23.97 36.21 Q 24.54 35.04 25.14 33.84 L 41.76 0 L 43.2 0.06 L 22.5 42.06 Z" vector-effect="non-scaling-stroke"/></g></svg>